<?xml version="1.0" encoding="UTF-8"?>
<svg version="1.1" viewBox="0 0 1600 1290" width="1280" height="1280" xmlns="http://www.w3.org/2000/svg">
<path transform="translate(776,88)" d="m0 0h43l10 1 1 2v206l-1 1h-53l-26 2-35 6-23 6-25 9-25 11-20 11-5 4 1 4 55 55 8 7 46 46 8 7 69 69 8 7 62 62 8 7 45 45 8 7 96 96 8 7 32 32 4 2 2-5 15-30 11-27 7-23 6-26 4-25 3-36 1-13h187l19 1 2 3v15l-2 42-5 37-7 36-8 30-12 36-13 32-11 23-12 22-12 20-13 20-12 19 2 6 8 16 6 15 4 15 3 17v31l-4 22-7 21-10 19-12 16-9 11-9 10-10 9-13 8-16 7-20 5-25 2h-21l-23-3-17-5-20-9-10-6-16-12-15-13-5-2-38 12-52 13-31 5-32 3-16 1h-52l-35-3-28-4-31-6-41-11-26-9-29-12-20-9-21-11-23-13-27-18-18-13-16-13-11-9-26-24-12-12-7-8-7-7-9-11-12-14-13-18-9-13-10-15-13-22-12-23-12-25-13-33-11-34-9-36-6-36-4-38-1-20v-44l3-39 5-33 6-28 9-33 7-21 2-5-1-5-7-7-7-8-9-9-11-14-8-13-9-19-6-20-4-23v-24l3-19 9-27 8-17 10-14 12-14 11-9 14-10 16-9 15-6 19-5 20-3h21l16 2 15 4 21 8 13 7 12 9 1 1 7-1 13-10 21-14 20-12 24-13 16-8 19-9 36-14 29-9 36-9 25-5 33-4zm-267 369-6 10-12 25-10 26-7 23-5 22-5 33-1 13v47l3 25 5 30 9 29 10 24 8 17 16 27 11 16 7 9 9 11 12 13 11 11 8 7 13 11 16 12 20 13 23 13 24 11 27 9 31 7 26 4 9 1h58l25-3 26-5 29-8 28-11 26-12 12-7 2-4-7-8-8-7-63-63h-2l-1-3-8-7-45-45-8-7-59-59h-2v-2l-8-7-54-54h-2v-2l-8-7-44-44-8-7-64-64-8-7-55-55z" fill="#9649FA"/>
<path transform="translate(357,307)" d="m0 0 4 1 2 1v2l4 2 7 7 8 7 44 44v2h2v2l4 2 6 7 8 7 5 4v2l4 2 4 5-1 8-6 16-8 28-7 32-3 28-1 17v20l2 31 3 24 6 27 9 30 10 25 3 1 3 5 5 22 10 30 13 29 13 23 16 24 7 9 9 11 12 13 10 10 8 7 13 11 16 12 20 13 23 13 24 11 27 9 31 7 26 4 9 1h58l25-3 26-5 29-8 28-11 26-12 12-7 3-3 104 104 8 7 18 18 8 7 9 10 1 7-10 7-11 8-15 10-28 16-23 12-29 13-8 3-2 3-7 1-35 11-52 13-31 5-32 3-16 1h-52l-35-3-28-4-31-6-41-11-26-9-29-12-20-9-21-11-23-13-27-18-18-13-16-13-11-9-26-24-12-12-7-8-7-7-9-11-12-14-13-18-9-13-10-15-13-22-12-23-12-25-13-33-11-34-9-36-6-36-4-38-1-20v-44l3-39 5-33 6-28 9-33 7-21 2-5 2-8 6-13 11-24 7-15 11-22h2l1-5 8-13 4-4 9-15 10-15z" fill="#1A8CFD"/>
<path transform="translate(357,307)" d="m0 0 4 1 2 1v2l4 2 7 7 8 7 44 44v2h2v2l4 2 6 7 8 7 5 4v2l4 2 4 5-1 8-6 16-8 28-7 32-3 28-1 17v20l2 31 3 24 6 27 9 30 10 25 3 1 3 5 5 22 10 30 13 29 13 23 16 24 7 9 9 11 12 13 10 10 8 7 13 11 16 12 20 13-1 2-17-10-11-8-6-4-9-8-4-2v-2l-4-2-9-9-8-7-9-9-6-1-4-7-4-6-4-3v-2l-3-1-1-6-6-2-3-3-1-3-5-2-9-8-1-3-8-4h-12l-2 1-1 4v14l-6-4-2 4-1 9-1 5-1 3-1 12-2 6 1 2v10l1 16-1 18 2 12v19l-2 4-2 8-6-1 1 3-4 3v4l2 1-1 6h-2l1 7h2l3 5 2-3 1-8 3-6 4-1 2 2h-2l-1 8-1 10 2 11 1 12v9l3 13 1 3 3 1 1 4h2v7l-4-1 2 7 6 5 3 6 4-1 1 10 9 11 3 4 9 4 9 7v2l6 2 12 6 14 9 10 4 8 5 13 5v3l-5-1-20-9-21-11-23-13-27-18-18-13-16-13-11-9-26-24-12-12-7-8-7-7-9-11-12-14-13-18-9-13-10-15-13-22-12-23-12-25-13-33-11-34-9-36-6-36-4-38-1-20v-44l3-39 5-33 6-28 9-33 7-21 2-5 2-8 6-13 11-24 7-15 11-22h2l1-5 8-13 4-4 9-15 10-15z" fill="#0E6EFD"/>
<path transform="translate(880,95)" d="m0 0 14 2 27 6 30 8 24 8 30 12 24 11 20 10 21 12 19 12 18 13 16 12 13 11 11 9 32 30 22 24 9 11 11 14 14 19 13 20 15 25 11 20 13 28 11 27 11 33 8 30 10 50 1 11-1 1h-208l-4-8-5-21-11-32-9-20-12-23-12-19-13-18-11-13-9-10-17-17-11-9-12-10-16-11-20-12-23-12-28-12-24-8-4-2v-177l1-34z" fill="#DD7696"/>
<path transform="translate(1124,615)" d="m0 0h187l19 1 2 3v15l-2 42-5 37-7 36-8 30-12 36-13 32-11 23-12 22-12 20-13 20-12 19-2 2-9-11-12-13-23-23-3-2v-2l-4-2-31-31-8-7-2-4h-2l-7-8-7-7-6-5v-2l-4-2-18-18v-2h-2l-7-9-4-4 8-16 14-29 10-27 7-26 5-26 3-23z" fill="#2DB6FC"/>
<path transform="translate(911,839)" d="m0 0 5 3 6 4v-2l10 1 1-4 12 2v2h6l5 1 2-1v4l8 2 5-1 4-3 15 1v-2l5 2 6 3v2h2l3 3 6 3 3 3v2l9 3 11 7 8 4 2 4 4 2 6 4 8 6 7 5 4 4v2l4 1v2l4 2 1 3 4 2 7 6 7 8 2 1v2l4 2v2l4 2 19 19 7 6v2l4 2 9 10 8 7v2l4 2 16 16 8 7v2h2l4 6v2h2l9 14 6 13 5 14 3 15 1 16-1 11-6 19-5 10-3 5-5 5-1 2h-3l-1 4h-2v2l-4 1-1 3-10 7h-3v2l-8 4-14 5-11 3-7 2-3 2-17 1h-21l-23-3-17-5-20-9-10-6-16-12-15-13-2-2 3-4 21-9 24-11 19-10 27-16 12-8 11-8 9-6-1-7-14-15-8-7-18-18-8-7-98-98-8-7v-2l-4-2-12-12-2-6-3-1v-2l-3-1v-2l-3-1-7-8-5-5v-5h-3l-1-2-2 1v-7l-5-1-1-4z" fill="#C56EFD"/>
<path transform="translate(880,95)" d="m0 0 14 2 27 6 30 8 24 8 30 12 24 11 20 10 21 12 14 9-1 2-12-6-10-6-2 1-1 3 3 7-4 2 2 5-4 1 3 10-1 4-3 6-3 1 3 4-2 11-1 4v5l-3 3 1 10v10l-2 3 2 13 2 12v6l-2 4v3l2 1-2 2 1 9h-2v11l-1 3 2 4 1 16h-2l2 9-1 8-2 5 1 5 3 7-1 4-3 2-2 6 2 7 1 9 6 10 5 11 1 4 10 15 7 11 6 11 8 15 1 6h2l6 15 4 9 5 17 5 15 2 9 3 10 1 2 8 1 29 1 68 1v1h-107l-3-7-5-21-11-32-9-20-12-23-12-19-13-18-11-13-9-10-17-17-11-9-12-10-16-11-20-12-23-12-28-12-24-8-4-2v-177l1-34z" fill="#CB53B4"/>
<path transform="translate(776,88)" d="m0 0h43l10 1 1 2v102l-9-1h-39l-34 3-27 4-26 6-29 9-25 10-25 12-18 10-19 12-13 10-9 7-10 6-5-2-5-5-10-9v-2h-2l-4-5-3-2v-2l-4-2-5-5v-2l-4-2-6-6v-2h-2l-7-8-16-16-8-7-3-3 1-3 18-13 18-12 20-12 24-13 16-8 19-9 36-14 29-9 36-9 25-5 33-4z" fill="#1A8CFD"/>
<path transform="translate(782,191)" d="m0 0h39l9 2v104l-1 1h-53l-26 2-35 6-23 6-25 9-25 11-20 11-5 4-4-1-11-9-15-14-25-25-8-7-3-3-2-4 1-4 4-4 13-10 18-13 22-13 23-12 20-9 20-7 25-8 31-7 22-3z" fill="#EB9B75"/>
<path transform="translate(879,371)" d="m0 0 12 2 15 4 22 8 21 10 18 11 16 12 10 9 15 15 11 14 8 11 12 21 10 22 7 22 5 20v11l-3 1h-36l-142-1-2-2v-188z" fill="#CC53B3"/>
<path transform="translate(1198,281)" d="m0 0 3 1 5 5 4 5 6 5 1 4 3 1v3l3 1v2h2v4l4 2 4 7 4 5 13 20 15 26 9 17 4 11v2h2l1 6h2l2 6 4 9 6 13 4 13 3 8 3 7 4 17 3 10 3 8 2 11 2 2-1 4 3 14 2 13 2 11v6l-1 1h-51l-29-1-17-1-23-4-2-2-8-3 1-11-3-9v-9l-1-6v-21l3-1-3-5 3-7-1-2v-8l2-9-2-4v-9l2-4-1-5 1-4v-35l-1-3v-51h2l-1-2v-10l-2-5 2-5 1-4 6-10 2-1v-2h2l1-6-4-10-5-6z" fill="#EB9B75"/>
<path transform="translate(1134,216)" d="m0 0 5 1 6 5h3l15 14 16 15 22 24 9 11 11 14 14 19 13 20 15 25 11 20 13 28 11 27 11 33 8 30 1 9-2-1-2-11-3-8-6-22-3-9-3-10-3-9-8-18-5-10v-5h-2l-1-6h-2l-8-19-7-13-11-19-10-16-8-12-5-6-2-4-2-1v-4h-2l-3-3-1-3-3-3-4-5-6-4-1-3-7-6 2 6 3 3 5 13-1 6-3-1 1 3h-3l-2 5-4 6-1 7-1 5 2 1v12h-2l1 3v48l1 3v38l-1 2 1 5-2 3v11l2 3-2 8v8l1 3-3 7 3 4-3 2v20l1 9v6l3 9-1 9-1 2 9 3 7 2 18 3 45 2h52v2l-2 1h-22l-85-2-28-1-38-4-12-4-5-5-4-2-2-10-2-8-1-18-1-4v-9l-1-2 3-7 2-4 1-20 1-12-2-1 2-8 1-3-1-8v-5l-1-3 1-12-1-14 1-11v-8l1-7-1-2v-6l1-4 1-9-1-12v-28l-1-7 2-18-2-8-1-16 2-3 2-10h4l-1-4 5-3 3-5-6-12-2-1z" fill="#E38588"/>
<path transform="translate(983,126)" d="m0 0 6 1 5 2 1-2 26 11 28 14 21 12 14 9-1 2-12-6-10-6-2 1-1 3 3 7-4 2 2 5-4 1 3 10-1 4-3 6-3 1 3 4-2 11-1 4v5l-3 3 1 10v10l-2 3 2 13 2 12v6l-2 4v3l2 1-2 2 1 9h-2v11l-1 3 2 4 1 16h-2l2 9-1 8-2 5 1 5 3 7-1 4-3 2-2 6 2 7 1 9 6 10 5 11 1 4 10 15 7 11 6 11 8 15 1 6h2l6 15 4 9 5 17 5 15 2 9 3 10 1 2 8 1 29 1 68 1v1h-107l-3-7-5-21-11-32-9-20-12-23-12-19-13-18-11-13-7-8-4-7v-2l-3-1v-3h-3v-3l-3-1v-2h-3l-1-3-5-4v-2l-4-2-11-9-10-10-7-9-4-6-4-5-1-6 4-1-2-4-1-3v-3l2-1v-10l1-9 1-6v-11l-1-7 1-2-1-9 1-3-1-6 2-2v-11l-1-5v-18l-1-5 2-6-1-5 1-3v-27l1-6-2-1 1-7-1-6 3-3v-2h4v-2h4l-1-4 4-3 1-4-5-2-4-2z" fill="#D363A6"/>
<path transform="translate(1124,615)" d="m0 0h187l19 1 2 3v15l-2 42-5 37-7 36-8 30-12 36-13 32-11 23-12 22-12 20-13 20-12 19-2 2-9-11-12-13-23-23-3-2v-2l-4-2-31-31-8-7-2-4h-2l-7-8-7-7-6-5v-2l-4-2-18-18v-2h-2l-7-9-4-4 8-16 14-29 10-27 7-26 5-26 3-23zm46 4-11 1-14 4-10 2-2-4h-5l-2 8v32l3 5h3l5 15 6 9 3 4-1 5 2 2h3v6h-2v2l12 5 2 2 5 2-4 2 3 2 3 3v2h-2l2 5 1 3 9 6h4l11 1 7 3v16l-4 14-8 22-8 17-11 20-13 26-3 4-1 7 4 5h2v2l9 7 10 10 8 7 7 9 8 7h3l2 4 5 5 6 4 5-1 6-5 2-4 3-1 7-8 1-4 3-1 2-8 9-15 7-11 7-9 1-6h2l8-17 5-10 9-20 3-7 7-21 4-16 5-16 2-11 4-16 3-18 4-34 2-19 1-19-1-12-2-4z" fill="#1B8CFD"/>
<path transform="translate(284,273)" d="m0 0h10l16 3 14 5 10 5 14 10 5 4 2 6-3 7-10 15-13 22-5 10h-2l-2 6-13 26-3 7-10 22-8 17-7-6-11-12-7-7-11-14-8-13-9-19-6-20-4-23v-23l16-12 12-7 15-6 9-2z" fill="#DD7696"/>
<path transform="translate(300,411)" d="m0 0 1 3-2 7-1 5 1 7-7 14-2 7h-2l-2 6-3 7-3 8-4 18 2 4 4-1v2h2v-2l4 1-3 3v7l2 1-1 9 3 10v5l1 3 6-2 6 1 1 13-1 3-2 2-2 13-3 11 1 5-1 23 1 24-1 7 2 20 1 6-1 2-1 23v8h-2v8l1 9-1 6v9l2 31 3 9 4-1v5l-2-2-1 11-1 3 4 4 1 10-1 4 1 7 2 3 1 12-2-1 2 10 2 4v8l3 10 4 6 4 13 4 9 4 7v3l2 1 3 5 7 12 21 33 8 11 4 4 2 5 2 4 5 4 7 10 4 4 4 7-4-2-13-14-9-11-14-18-11-16-12-18-13-22-12-23-12-25-13-33-11-34-9-36-6-36-4-38-1-20v-44l3-39 5-33 6-28 9-33 7-21 2-5 2-8 3-1 5-10z" fill="#0F64FD"/>
<path transform="translate(959,406)" d="m0 0 12 6 10 8 11 9 4 4h3l9 9 11 14 8 11 12 21 10 22 7 22 5 20v11l-3 1h-36v-1l7-1-48-2-12-1-14-5-6-4v-18l-1-21-1-12 2-12h-2v-12l1-9-1-1v-18l4-23 2-7 4-10z" fill="#E48688"/>
<path transform="translate(1120,1060)" d="m0 0 4 1 6 10 8 16 4 18 1 9v9l-2 17-6 20-3 8-2 7 3 3-3 2-17 1h-21l-23-3-17-5-20-9-10-6-16-12-15-13-2-2 3-4 21-9 24-11 19-10 27-16 12-8 18-10z" fill="#DD7697"/>
<path transform="translate(1198,281)" d="m0 0 3 1 5 5 4 5 6 5 1 4 3 1v3l3 1v2h2v4l4 2 4 7 4 5 13 20 14 24-1 2-7-9v-2l-5-2-3-3 1 4-5 12-2 5h5l1 5-8 7-2 2 1 5-1 8 1 7v9l-2 5 2 11 1 1v6l-2 8-1 7 1 2-2 4-1 12 1 9-1 7v10l-5 13v5l1 4-1 4-1 6-3 3 1 8v4l6 2 10 5 16 2 10 1v1h-25l-17-1-23-4-2-2-8-3 1-11-3-9v-9l-1-6v-21l3-1-3-5 3-7-1-2v-8l2-9-2-4v-9l2-4-1-5 1-4v-35l-1-3v-51h2l-1-2v-10l-2-5 2-5 1-4 6-10 2-1v-2h2l1-6-4-10-5-6z" fill="#E89180"/>
<path transform="translate(782,191)" d="m0 0h39l9 2v104l-1 1h-53l-26 2-35 6-23 6-25 9-25 11-20 11-5 4-4-1-11-9-15-14-25-25-8-7-3-3-2-4 1-4 4-4 13-10 18-13 22-13 23-12 20-9 20-7 9-3 2 1-11 5-11 3-9 4-7 5-2 2v1l3 1-1 1 3 3-4 4h-2l-1 5h-2l2 5 1 6 3 5 2 3v4l4-1 2 6 3 3 7 3 3 3 7 2v8l7 1v4l11 2 3 1h12l10-2 19-2 16-1 13-1h61l3-1v-98l-8-1h-33l-33 3-25 3-36 9-9 2v-2l25-7 26-5 34-4z" fill="#E38588"/>
<path transform="translate(461,413)" d="m0 0h5l14 12 21 21 6 7-1 7-5 13-9 19-10 26-7 23-5 22-5 33-2 28-1 48-4 1-5-10-5-16-5-18-5-27-3-28v-58l3-30 4-16 2-12 4-15 8-25z" fill="#CB52B4"/>
<path transform="translate(752,195)" d="m0 0h10l-3 2-5 1-18 1-6 5-6 1-1 3h-2l-2 4-2 5-6 4v6 3l2 1-2 5-4 3 2 7 1 3h2l2 9 1 4v4l7 3-4 1 5 5 2 5v5h-2v2l5 1 1 2 8 1h16l20 1-2 2h-16l-6 1-20 1-22 3-8 1h-9l-12-4v-4l-7-1-2-8-6-2-3-3-7-3-4-4v-4h-4l-2-6-3-4-2-4v-5l-1-4h2l1-5 4-4-3-4-2-1 1-3h2l5-4 7-4 9-3 7-2 12-5 9-2 28-7 15-3z" fill="#E89180"/>
<path transform="translate(959,406)" d="m0 0 12 6 10 8 11 9 4 4h3l9 9 11 14 8 11 12 21 8 17-1 3-10-19-11-19-14-18-15-15-2-1v-2l-4-1 1 3-1 4-1 7-4 6-1 4-1 22 2 19 1 9 1 20v23l7 5 17 3 8 1 21 1h19v-12l2 4v11l-3 1h-36v-1l7-1-48-2-12-1-14-5-6-4v-18l-1-21-1-12 2-12h-2v-12l1-9-1-1v-18l4-23 2-7 4-10z" fill="#DD7696"/>
<path transform="translate(240,308)" d="m0 0 7 2 4 2v2l6 1 14 7 8 7 2 5h3l5 5v2h2v2h2v2l3 1 5 12 2 12v20l-4 14-4 9-5 13-4 5-4-2-3-2v-2l-4-2-16-16v-2h-2l-7-10v-2h-2l-6-12-3-7-5-11-3-12v-10h-2l-1-10v-20l5-1 4 1 3-1z" fill="#E48688"/>
<path transform="translate(929,390)" d="m0 0 9 3 12 5 6 1 18 12 14 11 9 9-1 3-7-7-9-7-11-8-10-5h-2l-2 9-2 4-4 20-1 12v13l1 3-1 13-1 6h2v7l-1 10 1 11 1 17v11l-1 7 4 2 13 5 3 1 33 2 47 2v1h-136v-1l55-1-20-1-21-3-2-2-7-3-2-5 1-5 1-9 1-13v-14l-1-45-1-13v-26l2-18 2-2 1-5 7-6z" fill="#D363A6"/>
<path transform="translate(1041,1109)" d="m0 0 29 1 3 1 2 6 8 6 14 9 4 3 1 4 4 1 2 6 2 1 2 4v3l2 1 1 7-4 3v2l-4 3-18 2-25-2-19-5-8-3-9-6-5-2-9-6-8-6-7-6v-2l-3-1v-4l14-7 13-5 16-7z" fill="#E38588"/>
<path transform="translate(956,914)" d="m0 0 4 1-6 4-11 6-17 8-10 7-7 2-3 2h-3l-2 4-4 1h-6v2l-6 3-3 1-1 3-3 1 3 2-5 5-1 2 7-2-1 4-2 5 3 1 1 6-1 3-5 2h-15v-1h-9l-16 3-29-4-15-3-16-4-24-7-22-8-16-7-13-6-18-7-4-3 8 1 28 7 36 6 9 1h58l25-3 26-5 29-8 28-11 26-12z" fill="#0E6EFD"/>
<path transform="translate(880,95)" d="m0 0 14 2 27 6 15 4v2h-8l-5-1-5 1-10-1-6-1-5 1v2l-6 2-4-6h-2l-1 5h-2l1 10v20 3l1 4v4l-1 4 2 4 1 7 2 1v2l3 4v12l2 14v18 3l-1 9 1 17v5l-1 3 2 20h2v7l2 6v5l2 6 4 2 2 5 8 5 11 6 12 6 1 2 12 6v2l6 2 2 1v2l5 2 20 13-1 3-25-15-23-12-28-12-24-8-4-2v-177l1-34z" fill="#BF43BC"/>
<path transform="translate(461,413)" d="m0 0h5l7 8 8 7 16 17 8 7-1 8-2 2-1 5-3 3-7 13-7 9-3 6-6 1v-2l-4 2h-2l-2 3h-4v-3l-2-1-2-5h-7l-4 3-3-5-1-13 3-22 5-21 3-10 1-7z" fill="#D363A6"/>
<path transform="translate(1018,469)" d="m0 0 1 2 3-1 7 8 3 5 4 4 7 14 4 13 4 9 7 26v9l-6 2-28-2-9-3-4-5-2-8v-46l2-8 4-9 2-1v-8z" fill="#E89180"/>
<path transform="translate(390,341)" d="m0 0 8 6 33 33 8 7 8 8 8 7 2 2-1 9-5 19-7 24-7 32-3 28-1 17v20l2 31 3 24 6 27 9 30 10 25 3 1 3 5 1 10-3 1-8-16-6-8-2-6-5-8-6-15-3-12-2-13-2-9-5-28-1-12-1-23-1-11v-15l2-17 1-22 3-18 5-18 4-9 1-9 4-9 2-9-3-9-4-8-4-14-7-6-5-6-14-11-8-9-7-8-5-6z" fill="#1A8CFD"/>
<path transform="translate(879,371)" d="m0 0 12 2 15 4 9 3-1 2-16-1h-5l-3 1-2 4-4 6-2 9-1 15 1 4 1 5v9l1 7v12l2 18 1 41 1 12v26l2 4 4 1 10 3 27 3v1l-18 1h-33l-2-2v-188z" fill="#BF42BC"/>
<path transform="translate(1031,488)" d="m0 0 5 4 7 11 6 15 5 15 4 16v9l-6 2-13-1-11-3-7-4v-11l3 1 1-4h2v-11l1-1 1-11 1-1v-17h2l-2-7z" fill="#EB9B75"/>
<path transform="translate(618,116)" d="m0 0h4v2l-18 7-3 3-11 5h-2v2l-16 6-6 4-16 10-16 8-11 7-5 5-6 1-2 1v3l-4 2-2 4-11 9-5 5-13 4h-2l-1 2 2 4-4-2-7-7 1-3 18-13 18-12 20-12 24-13 16-8 19-9 36-14z" fill="#0E6EFD"/>
<path transform="translate(439,483)" d="m0 0 1 4-3 31v38l2 26 3 22 4 16 2-3 1-13 3-1v-2h2l-1-3 4-4h2v-3h3l1-9 3-13 1-9 2-6 1-7 3-2-1 8-5 28-2 15-2 28-1 48-4 1-5-10-5-16-5-18-5-27-3-28v-58l3-30z" fill="#BF42BC"/>
<path transform="translate(579,257)" d="m0 0 2 1-4 2zm-4 3 2 1h-3zm-3 2 2 1-12 11-3 3-1 3 5 5 1 5h2l4 6 5 5 8 6 4 4v2h2l5 6v2l4 2 9 7h10l2 1 2-1h7v-2l18-6 10-3 9-4 11-3 10-2h5l1 2-25 9-25 11-20 11-5 4-4-1-11-9-15-14-25-25-8-7-3-3-2-4 1-4 4-4 13-10z" fill="#DD7697"/>
<path transform="translate(284,273)" d="m0 0h10l16 3 14 5 10 5 14 10 5 4 2 6-3 7-10 15-7 12-5 5-5 8-1-3 13-26 1-11-2-1v-6l-4 1-3-2 1-7-2-1-1-6-5-2-2-1-4-1-7-3h-2v-2l-6 1-15-3-12-1-7 1-15 5-14 8-5 3-2-1 8-6 12-7 15-6 9-2z" fill="#D362A7"/>
<path transform="translate(680,940)" d="m0 0 8 1 28 7 36 6 9 1h58l25-3 12-2h8l-3 3-9 2-11 4-6 1-18 2-7-1-26 2-2 2-3-2-1 1h-37l-17-4-13-6-31-13z" fill="#1067FD"/>
<path transform="translate(1120,1060)" d="m0 0 4 1 6 10 8 16 4 18 1 9v9l-2 17-6 20-3 8-2 7 3 3-3 2-17 1h-21l-10-1v-2h15l22-1 4-4 8-20 3-15 1-9-2-20-5-19-8-17-4-3-18 6 3-3 14-9 3-3z" fill="#D464A5"/>
<path transform="translate(469,706)" d="m0 0h2l7 25 9 24 12 26 16 27 11 16 7 9 9 11 12 13 10 10 8 7 13 11 16 12 20 13-1 2-17-10-11-8-6-4-9-8-4-2v-2l-4-2-9-9-8-7-9-9-10-13-10-12-16-22-5-9-8-13-5-11-7-16-4-9-3-8-7-28-1-3z" fill="#116BFD"/>
<path transform="translate(1151,227)" d="m0 0 4 1 13 13 8 7 15 16 10 11 9 11 11 14 14 19 13 20 15 25 11 20 13 28 11 27 11 33 8 30 1 9-2-1-2-11-3-8-6-22-3-9-3-10-3-9-8-18-5-10v-5h-2l-1-6h-2l-8-19-7-13-11-19-10-16-8-12-5-6-2-4-2-1v-4h-2l-3-3-1-3-3-3-6-8-7-8-11-13-9-11-21-21-8-7-1-3z" fill="#DF7A92"/>
<path transform="translate(782,191)" d="m0 0h39l9 2v104l-1 1h-53l-26 2h-6l1-2 23-3h59l-1-101-8-1h-33l-33 3-25 3-36 9-9 2v-2l25-7 26-5 34-4z" fill="#DB759B"/>
<path transform="translate(451,425)" d="m0 0 1 3-8 28-7 32-3 28-1 17v20l2 31 3 24 6 27 9 30 10 25 3 1 3 5 1 8-1-3h-2l-8-14-7-17-9-30-7-29-3-21-2-20-1-18v-18l1-22 3-26 7-29 9-30z" fill="#0F63FD"/>
<path transform="translate(1318,512)" d="m0 0 2 4 8 42v5l-1 1h-208v-1l98-1v-1h42l57 1h9l-3-19-4-23-1-7z" fill="#DE7796"/>
<path transform="translate(1076,453)" d="m0 0 3 1 7 12 6 13v3h2l6 15 4 9 5 17 5 15 2 9 3 10 1 2 8 1 29 1 68 1v1h-107l-3-7-5-21-11-32-9-20-2-6-3-7-7-13z" fill="#D464A5"/>
<path transform="translate(357,307)" d="m0 0 4 1 2 1v2l4 2 7 7 8 7 44 44v2h2v2l4 2 6 7 8 7 5 4v2l4 2 4 5-1 8-3 7-1-3 2-6v-6l-7-7-8-7-8-8-8-7-30-30-5-4v-2l-3-1-5-6-8-7-14-14-4-1-1 3-1-2z" fill="#0F63FD"/>
<path transform="translate(226,335)" d="m0 0 2 4v2h3l2 16 4 10 6 14 3 6 2 3v3h2l7 10v2h2l7 8 11 11 7 6 4-2 3-2-2 6-3 6-7-6-11-12-7-7-11-14-8-13-9-19-6-20-1-4z" fill="#DD7696"/>
<path transform="translate(338,339)" d="m0 0v3l-13 22-11 19-6 15-6 10-9 22-4 6-1-4 5-11 11-24 7-15 11-22h2l1-5 8-13z" fill="#2E74FD"/>
<path transform="translate(467,415)" d="m0 0 4 2 13 12 17 17 6 7-1 7-5 13-9 19-10 26-4 12-2-1 1-6 2-5 3-9 11-27 7-15 2-6 2-4v-5l-13-12-14-15-10-9z" fill="#C04AC7"/>
<path transform="translate(1151,227)" d="m0 0 4 1 13 13 8 7 15 16 10 11 9 11 11 14 11 15-1 2-6-5v-4h-2l-3-3-1-3-3-3-6-8-7-8-11-13-9-11-21-21-8-7-1-3z" fill="#DB7299"/>
<path transform="translate(462,624)" d="m0 0h1l1 32 3 25 2 15-3-3v-2l-4-1-10-25v-2h2l4 8v2l4-1z" fill="#9C4EFA"/>
<path transform="translate(829,282)" d="m0 0h1v15l-1 1h-53l-26 2h-6l1-2 23-3h59v-12z" fill="#DC7498"/>
<path transform="translate(1229,315)" d="m0 0 4 1 15 23 15 25 11 20 7 15-1 2-3-5v-2l-3-1-4-10-7-13-11-19-10-16-8-12-5-6z" fill="#DE7896"/>
<path transform="translate(508,168)" d="m0 0 2 1-1 3-16 10-11 8-5 2-1 2-4 2-2 9 4 5-4-2-7-7 1-3 18-13 18-12z" fill="#1069FD"/>
<path transform="translate(1087,814)" d="m0 0 7 6 13 13 8 7 61 61h-3l-32-32-8-7-2-4h-2l-7-8-7-7-6-5v-2l-4-2-18-18z" fill="#0F63FD"/>
<path transform="translate(612,1131)" d="m0 0 12 2 19 7 5 3 7 1 3 3-10-1-27-8-9-3z" fill="#1073FD"/>
<path transform="translate(1085,175)" d="m0 0 5 2 17 12 16 12 13 11 10 8-1 3-10-9-17-13-12-9-19-13z" fill="#D362A7"/>
<path transform="translate(1117,558)" d="m0 0 11 2 29 1 68 1v1h-107z" fill="#D363A6"/>
<path transform="translate(397,990)" d="m0 0 2 1v2h2l7 8 13 13 7 6v2l4 2 3 3 5 2 3 3 1 5-4-2-15-14-12-11-12-12-5-7z" fill="#116CFD"/>
<path transform="translate(338,339)" d="m0 0v3l-13 22-11 19-1-2 3-6 3-9 3-6h2l1-5 8-13z" fill="#1A8CFD"/>
<path transform="translate(952,398)" d="m0 0 5 2 16 10 16 13 8 8-1 3-7-7-18-14-4-4-7-5-8-4z" fill="#CF5AAE"/>
<path transform="translate(573,878)" d="m0 0 6 2 14 11 14 10 14 9-1 2-17-10-11-8-6-4-9-8-4-2z" fill="#1173FD"/>
<path transform="translate(467,415)" d="m0 0 4 2 13 12 17 17 6 7-1 7-5 5 1-4 2-4v-5l-13-12-14-15-10-9z" fill="#C84EB6"/>
<path transform="translate(1043,503)" d="m0 0 5 5 8 24 3 12v4h-2l-7-25-7-17z" fill="#DF7B91"/>
<path transform="translate(356,310)" d="m0 0 5 1 7 7h-3l-6-4-5 3-11 17-2 3h-2l1-4 10-16z" fill="#167CFD"/>
<path transform="translate(946,884)" d="m0 0 4 2 5 5v2l4 2v2h2l29 29-1 2-21-21-8-7v-2l-4-2-10-10z" fill="#984BFA"/>
<path transform="translate(1104,512)" d="m0 0 3 3 5 17 2 6 2 9 3 12h-3l-7-27-6-19z" fill="#D668A2"/>
<path transform="translate(460,409)" d="m0 0 6 3v1l-7 1-2 4-8 25-4 15h-2l4-17 9-27 1-2h2z" fill="#A253FB"/>
<path transform="translate(1318,512)" d="m0 0 2 4 7 36v6l-2 1-4-20-3-19-1-7z" fill="#DF7A92"/>
<path transform="translate(228,297)" d="m0 0 2 1-3 4-1 32-2-2-1-8v-23z" fill="#D362A7"/>
<path transform="translate(551,287)" d="m0 0h3l44 44h-3l-33-33-8-7z" fill="#CE59AE"/>
<path transform="translate(482,218)" d="m0 0 4 2 36 36-1 2-3-2v-2l-4-2-5-5v-2l-4-2-6-6v-2h-2l-7-8-8-8z" fill="#0F63FD"/>
<path transform="translate(1151,227)" d="m0 0 4 1 13 13 8 7 11 12-1 2-24-24-8-7-1-3z" fill="#CF5CAC"/>
<path transform="translate(956,914)" d="m0 0 4 1-6 4-11 6-8 4h-5l-1-2 24-11z" fill="#1272FD"/>
<path transform="translate(1082,1178)" d="m0 0h37v1h-6v2h-21l-10-1z" fill="#D669A1"/>
<path transform="translate(451,1041)" d="m0 0 8 4 5 5 10 8 3 3-3 1-13-10-10-8z" fill="#116BFD"/>
<path transform="translate(226,335)" d="m0 0 2 4v2h3l2 16 2 6-1 3-2-2-6-21z" fill="#DB7399"/>
<path transform="translate(679,209)" d="m0 0 2 1-11 5-11 3-9 4-17 7-3-1 20-9 20-7z" fill="#DB77A1"/>
<path transform="translate(1048,415)" d="m0 0 3 1v2h2l3 5 4 5 3 4v2h2l6 10 2 3-1 3-11-16-9-12-4-5z" fill="#CF5AAD"/>
<path transform="translate(1085,175)" d="m0 0 5 2 17 12 4 3v2l-5-2-19-13z" fill="#D261A8"/>
<path transform="translate(300,405)" d="m0 0h1v6l-8 19-4 6-1-4 5-11z" fill="#267CFD"/>
<path transform="translate(487,498)" d="m0 0 1 4-9 25-2 3-1-5 3-7 3-9 4-10z" fill="#C049C5"/>
<path transform="translate(1276,394)" d="m0 0 3 4 4 5 5 11 1 9-2-1-4-9v-5h-2l-1-6h-2l-2-5z" fill="#E17F8E"/>
<path transform="translate(258,279)" d="m0 0 3 1-7 4-16 9-5 3-2-1 8-6 12-7z" fill="#CC57AF"/>
<path transform="translate(1127,1173)" d="m0 0h3v2l3 3-3 2h-17v-1l10-2z" fill="#C952BD"/>
<path transform="translate(978,417)" d="m0 0 5 1 10 9 4 4-1 3-7-7-9-7z" fill="#D465A5"/>
<path transform="translate(768,295)" d="m0 0h2v2h6v1l-26 2h-6l1-2z" fill="#DE7796"/>
<path transform="translate(1060,160)" d="m0 0 5 1 19 12-1 2-12-6-6-4-3-3z" fill="#CF5EAC"/>
<path transform="translate(472,545)" d="m0 0 1 4-4 20h-2v-9l2-6 1-7z" fill="#BC4ACE"/>
<path transform="translate(1287,417)" d="m0 0h2l9 22-1 3-6-12z" fill="#DF7993"/>
<path transform="translate(1217,297)" d="m0 0 5 4 10 14-1 2-6-5v-4h-2l-3-3-1-3-2-1z" fill="#D76AA0"/>
<path transform="translate(356,310)" d="m0 0 5 1 7 7h-3l-6-4-5 3-4 2 2-5z" fill="#1987FD"/>
<path transform="translate(330,347)" d="m0 0 1 4-3 1-3 9-6 11h-2l2-6 3-6h2l1-5z" fill="#665EFC"/>
<path transform="translate(600,897)" d="m0 0 9 5 12 8-1 2-17-10-3-2z" fill="#1278FE"/>
<path transform="translate(338,339)" d="m0 0v3l-8 13-3 1 1-4 2-1 2-8z" fill="#2A7AFD"/>
<path transform="translate(946,884)" d="m0 0 4 2 5 5v2l4 2v2h2l2 5-3-2v-2l-4-2-10-10z" fill="#A756FB"/>
<path transform="translate(651,106)" d="m0 0h5l-1 2-16 5h-3l1-3z" fill="#1175FD"/>
<path transform="translate(461,690)" d="m0 0 5 1 3 5 1 8-1-3h-2l-6-10z" fill="#1363FD"/>
<path transform="translate(1053,529)" d="m0 0 1 3h2l3 12v4h-2l-4-15z" fill="#E1808D"/>
<path transform="translate(1312,487)" d="m0 0 2 3 4 17-1 4-2-6-2-7-1-3z" fill="#DE7993"/>
<path transform="translate(523,159)" d="m0 0 2 1-10 8-3 2-3-1 4-4z" fill="#126EFD"/>
<path transform="translate(282,483)" d="m0 0h4l1 3-1 5-3 1-2-3v-5z" fill="#0F63FD"/>
<path transform="translate(680,940)" d="m0 0 8 1 7 2 2 4-11-3-6-3z" fill="#1174FD"/>
<path transform="translate(938,923)" d="m0 0 5 1-4 3-4 2h-5l-1-2z" fill="#116FFD"/>
<path transform="translate(1104,512)" d="m0 0 3 3 3 9v5h-2l-5-16z" fill="#D669A1"/>
<path transform="translate(503,462)" d="m0 0 1 2-3 9-3 4-1-3z" fill="#BF48C6"/>
<path transform="translate(481,514)" d="m0 0 1 4-4 12-2-1 1-6 2-5z" fill="#C148C0"/>
<path transform="translate(1085,175)" d="m0 0 5 2 8 6-4 1-9-7z" fill="#CB5BB2"/>
<path transform="translate(618,116)" d="m0 0h4v2l-10 4-5-1 2-2z" fill="#1275FD"/>
<path transform="translate(1043,503)" d="m0 0 5 5 2 5-1 5-3-4-3-8z" fill="#E2808C"/>
<path transform="translate(277,500)" d="m0 0 4 2-2 6-4-1v-5z" fill="#0E6EFE"/>
<path transform="translate(535,271)" d="m0 0 4 2 5 4 4 1 4-1-3 3-4 1-7-5z" fill="#0F63FD"/>
<path transform="translate(1145,1174)" d="m0 0m-5 1h5v2l-7 2h-5l-1-2z" fill="#A051FA"/>
<path transform="translate(1e3 441)" d="m0 0 5 2 8 9-1 3-7-8z" fill="#D465A5"/>
<path transform="translate(338,289)" d="m0 0 9 6 6 5v2l-4-2-11-9z" fill="#C950B5"/>
<path transform="translate(1146,221)" d="m0 0 6 5 4 7-4-2-7-7z" fill="#DD7696"/>
<path transform="translate(242,287)" d="m0 0 4 1-13 8-2-1 8-6z" fill="#CE5AAD"/>
<path transform="translate(1133,211)" d="m0 0 5 2 8 7-1 3-10-9-2-1z" fill="#D260A8"/>
<path transform="translate(1114,545)" d="m0 0 3 4 2 10h-3l-2-8z" fill="#D566A4"/>
<path transform="translate(1034,486)" d="m0 0 3 3 6 12-1 2-6-9z" fill="#E58985"/>
<path transform="translate(970,409)" d="m0 0 7 4 4 4h-5l-5-4z" fill="#D15EAA"/>
<path transform="translate(983,355)" d="m0 0 5 2 9 8h-3l-11-8z" fill="#C74FB3"/>
<path transform="translate(980,122)" d="m0 0 10 3 4 2v2l-12-3z" fill="#C554C2"/>
<path transform="translate(300,405)" d="m0 0h1v6l-2 5-3 3-2-1z" fill="#346FFC"/>
<path transform="translate(271,421)" d="m0 0 7 6 5 6h-3l-9-10z" fill="#D567A3"/>
<path transform="translate(460,409)" d="m0 0 6 3v1l-7 1-1 3h-1v-5h2z" fill="#C26CFD"/>
<path transform="translate(1308,476)" d="m0 0h2l2 7v8h-1l-3-10z" fill="#E1808D"/>
<path transform="translate(1151,227)" d="m0 0 4 1 7 7-2 2-7-7v-2z" fill="#D464A5"/>
<path transform="translate(1276,394)" d="m0 0 3 4 4 5-1 5-2-3v-3h-2l-2-5z" fill="#E38489"/>
<path transform="translate(566,137)" d="m0 0h2l-1 3-8 4-2-1 3-3z" fill="#116BFD"/>
</svg>
